<svg xmlns="http://www.w3.org/2000/svg" xmlns:xlink="http://www.w3.org/1999/xlink" width="500" zoomAndPan="magnify" viewBox="0 0 375 374.999991" height="500" preserveAspectRatio="xMidYMid meet" version="1.0"><defs><g/></defs><g fill="#000000" fill-opacity="1"><g transform="translate(11.841801, 205.499987)"><g><path d="M 13.28125 -30.53125 C 13.039062 -29.75 12.832031 -28.859375 12.65625 -27.859375 L 12.328125 -25.21875 L 12.140625 -23.21875 C 12.046875 -22.457031 11.929688 -21.785156 11.796875 -21.203125 L 11.71875 -20.59375 C 11.675781 -20.28125 11.816406 -20.125 12.140625 -20.125 C 12.378906 -20.125 12.617188 -20.148438 12.859375 -20.203125 L 15.46875 -20.796875 C 16.03125 -20.921875 16.238281 -21.28125 16.09375 -21.875 L 15.84375 -22.765625 L 15.078125 -25.015625 L 14.5 -26.9375 L 13.890625 -28.890625 L 13.609375 -29.703125 Z M 0.3125 -0.0625 L 0.328125 -0.96875 C 0.316406 -1.34375 0.335938 -1.765625 0.390625 -2.234375 C 0.460938 -2.710938 0.5 -3.191406 0.5 -3.671875 C 0.445312 -4.992188 0.597656 -6.925781 0.953125 -9.46875 L 1.28125 -12.359375 L 1.609375 -15.671875 L 1.953125 -18.953125 L 2.109375 -20.046875 L 2.28125 -21.125 L 2.609375 -24.515625 L 2.984375 -27.9375 L 3.203125 -29.78125 L 3.453125 -31.640625 L 3.671875 -33.375 L 3.921875 -35.09375 C 4.109375 -36.46875 4.210938 -37.617188 4.234375 -38.546875 L 4.3125 -39.21875 L 4.421875 -39.890625 L 4.84375 -43.390625 C 4.894531 -43.910156 5.117188 -44.234375 5.515625 -44.359375 C 6.046875 -44.566406 6.5 -44.96875 6.875 -45.5625 L 7.046875 -45.78125 L 7.203125 -45.984375 C 7.410156 -46.179688 7.597656 -46.207031 7.765625 -46.0625 C 7.953125 -45.9375 8.226562 -45.796875 8.59375 -45.640625 L 9.046875 -45.484375 L 9.4375 -45.25 C 9.789062 -45.007812 10.21875 -44.878906 10.71875 -44.859375 C 11.9375 -44.847656 12.84375 -44.164062 13.4375 -42.8125 C 14.195312 -41.082031 15.035156 -38.582031 15.953125 -35.3125 L 16.5 -33.421875 L 17 -31.53125 L 17.28125 -30.734375 L 17.5625 -29.953125 L 18.09375 -28.328125 L 18.625 -26.6875 C 19.0625 -25.351562 19.382812 -24.257812 19.59375 -23.40625 C 19.78125 -22.71875 20.054688 -22.015625 20.421875 -21.296875 L 20.8125 -20.3125 L 21.15625 -19.34375 L 22.546875 -15.859375 L 22.71875 -15.53125 L 22.796875 -15.203125 C 22.828125 -14.640625 22.972656 -14.023438 23.234375 -13.359375 L 23.578125 -12.53125 L 23.96875 -11.65625 C 24.300781 -10.957031 24.648438 -10.125 25.015625 -9.15625 L 25.9375 -6.625 C 26.238281 -5.820312 26.59375 -4.957031 27 -4.03125 C 27.238281 -3.476562 27.40625 -2.882812 27.5 -2.25 C 27.53125 -1.988281 27.53125 -1.710938 27.5 -1.421875 C 27.40625 -0.710938 27 -0.300781 26.28125 -0.1875 C 25.957031 -0.132812 25.710938 -0.226562 25.546875 -0.46875 L 24.875 -1.390625 L 24.21875 -2.3125 C 23.675781 -3.03125 23.273438 -3.679688 23.015625 -4.265625 L 21.9375 -6.484375 L 20.875 -8.71875 C 20.09375 -10.414062 19.460938 -11.9375 18.984375 -13.28125 L 18.265625 -15.328125 L 17.53125 -17.390625 L 17.453125 -17.671875 L 17.34375 -17.984375 C 17.207031 -18.316406 16.9375 -18.453125 16.53125 -18.390625 C 15.03125 -18.191406 13.828125 -18.148438 12.921875 -18.265625 C 12.285156 -18.347656 11.863281 -18.304688 11.65625 -18.140625 C 11.457031 -17.972656 11.3125 -17.578125 11.21875 -16.953125 L 9.484375 -6.09375 L 9.21875 -4.765625 L 8.578125 -2.03125 C 8.242188 -0.363281 7.75 0.953125 7.09375 1.921875 C 6.925781 2.179688 6.796875 2.539062 6.703125 3 C 6.597656 3.59375 6.21875 4.132812 5.5625 4.625 C 4.914062 5.082031 4.285156 5.296875 3.671875 5.265625 L 2.34375 5.203125 C 1.988281 5.222656 1.65625 5.128906 1.34375 4.921875 L 0.953125 4.625 L 0.5625 4.265625 C 0.1875 3.910156 0.0195312 3.398438 0.0625 2.734375 Z M 0.3125 -0.0625 "/></g></g></g><g fill="#000000" fill-opacity="1"><g transform="translate(44.676843, 205.499987)"><g><path d="M 12.890625 -13.6875 L 12.9375 -16.953125 L 13.046875 -20.171875 C 13.085938 -21.085938 12.671875 -21.40625 11.796875 -21.125 C 10.460938 -20.675781 9.035156 -19.953125 7.515625 -18.953125 C 6.515625 -18.304688 5.945312 -17.601562 5.8125 -16.84375 C 5.425781 -14.664062 5.316406 -12.847656 5.484375 -11.390625 C 5.796875 -8.660156 7.269531 -7.582031 9.90625 -8.15625 L 10.578125 -8.328125 L 11.21875 -8.515625 C 12.195312 -8.753906 12.695312 -9.382812 12.71875 -10.40625 L 12.9375 -13.6875 Z M 22.796875 -19.8125 C 22.796875 -17.101562 22.890625 -13.976562 23.078125 -10.4375 C 23.367188 -4.78125 22.585938 -0.171875 20.734375 3.390625 L 20.34375 4.265625 L 19.953125 5.15625 C 19.597656 5.832031 19.273438 6.429688 18.984375 6.953125 C 18.554688 7.640625 18.140625 8.226562 17.734375 8.71875 C 16.648438 9.9375 15.570312 10.453125 14.5 10.265625 C 14.070312 10.191406 13.726562 9.632812 13.46875 8.59375 C 13.226562 7.59375 13.203125 6.785156 13.390625 6.171875 C 13.484375 5.804688 13.414062 5.375 13.1875 4.875 L 12.890625 4.28125 C 12.796875 4.039062 12.75 3.828125 12.75 3.640625 L 12.546875 1.140625 L 12.359375 -1.359375 C 12.335938 -1.847656 12.078125 -2.035156 11.578125 -1.921875 C 9.535156 -1.515625 7.363281 -2.132812 5.0625 -3.78125 C 2.800781 -5.414062 1.46875 -7.289062 1.0625 -9.40625 C 0.351562 -12.9375 0.84375 -15.644531 2.53125 -17.53125 C 5.019531 -20.3125 8.15625 -22.222656 11.9375 -23.265625 C 12.738281 -23.492188 13.15625 -24.003906 13.1875 -24.796875 C 13.507812 -31.085938 13.828125 -36.859375 14.140625 -42.109375 C 14.191406 -42.941406 14.75 -43.726562 15.8125 -44.46875 C 16.851562 -45.21875 17.890625 -45.5625 18.921875 -45.5 C 19.835938 -45.46875 20.597656 -45.179688 21.203125 -44.640625 C 21.816406 -44.097656 22.113281 -43.441406 22.09375 -42.671875 C 22.0625 -41.984375 22.09375 -41.164062 22.1875 -40.21875 L 22.328125 -39 L 22.453125 -37.765625 C 23.066406 -31.566406 23.179688 -25.582031 22.796875 -19.8125 Z M 22.796875 -19.8125 "/></g></g></g><g fill="#000000" fill-opacity="1"><g transform="translate(73.75534, 205.499987)"><g><path d="M 12.890625 -13.6875 L 12.9375 -16.953125 L 13.046875 -20.171875 C 13.085938 -21.085938 12.671875 -21.40625 11.796875 -21.125 C 10.460938 -20.675781 9.035156 -19.953125 7.515625 -18.953125 C 6.515625 -18.304688 5.945312 -17.601562 5.8125 -16.84375 C 5.425781 -14.664062 5.316406 -12.847656 5.484375 -11.390625 C 5.796875 -8.660156 7.269531 -7.582031 9.90625 -8.15625 L 10.578125 -8.328125 L 11.21875 -8.515625 C 12.195312 -8.753906 12.695312 -9.382812 12.71875 -10.40625 L 12.9375 -13.6875 Z M 22.796875 -19.8125 C 22.796875 -17.101562 22.890625 -13.976562 23.078125 -10.4375 C 23.367188 -4.78125 22.585938 -0.171875 20.734375 3.390625 L 20.34375 4.265625 L 19.953125 5.15625 C 19.597656 5.832031 19.273438 6.429688 18.984375 6.953125 C 18.554688 7.640625 18.140625 8.226562 17.734375 8.71875 C 16.648438 9.9375 15.570312 10.453125 14.5 10.265625 C 14.070312 10.191406 13.726562 9.632812 13.46875 8.59375 C 13.226562 7.59375 13.203125 6.785156 13.390625 6.171875 C 13.484375 5.804688 13.414062 5.375 13.1875 4.875 L 12.890625 4.28125 C 12.796875 4.039062 12.75 3.828125 12.75 3.640625 L 12.546875 1.140625 L 12.359375 -1.359375 C 12.335938 -1.847656 12.078125 -2.035156 11.578125 -1.921875 C 9.535156 -1.515625 7.363281 -2.132812 5.0625 -3.78125 C 2.800781 -5.414062 1.46875 -7.289062 1.0625 -9.40625 C 0.351562 -12.9375 0.84375 -15.644531 2.53125 -17.53125 C 5.019531 -20.3125 8.15625 -22.222656 11.9375 -23.265625 C 12.738281 -23.492188 13.15625 -24.003906 13.1875 -24.796875 C 13.507812 -31.085938 13.828125 -36.859375 14.140625 -42.109375 C 14.191406 -42.941406 14.75 -43.726562 15.8125 -44.46875 C 16.851562 -45.21875 17.890625 -45.5625 18.921875 -45.5 C 19.835938 -45.46875 20.597656 -45.179688 21.203125 -44.640625 C 21.816406 -44.097656 22.113281 -43.441406 22.09375 -42.671875 C 22.0625 -41.984375 22.09375 -41.164062 22.1875 -40.21875 L 22.328125 -39 L 22.453125 -37.765625 C 23.066406 -31.566406 23.179688 -25.582031 22.796875 -19.8125 Z M 22.796875 -19.8125 "/></g></g></g><g fill="#000000" fill-opacity="1"><g transform="translate(102.833838, 205.499987)"><g><path d="M 0.53125 -30.34375 C 0.457031 -31.4375 0.34375 -32.363281 0.1875 -33.125 C 0.0625 -33.863281 0.285156 -34.390625 0.859375 -34.703125 C 1.085938 -34.816406 1.359375 -34.910156 1.671875 -34.984375 L 2.0625 -35.046875 L 2.421875 -35.09375 L 3.09375 -35.203125 L 3.78125 -35.34375 C 4.34375 -35.4375 4.804688 -35.484375 5.171875 -35.484375 C 6.234375 -35.453125 7.070312 -34.988281 7.6875 -34.09375 C 7.8125 -33.882812 7.957031 -33.859375 8.125 -34.015625 L 8.328125 -34.265625 L 8.484375 -34.484375 C 10.710938 -36.640625 13.082031 -37.671875 15.59375 -37.578125 C 16.90625 -37.515625 18.09375 -36.921875 19.15625 -35.796875 C 22.625 -32.078125 23.96875 -27.84375 23.1875 -23.09375 C 23.144531 -22.78125 23.015625 -22.578125 22.796875 -22.484375 C 22.398438 -22.335938 21.804688 -22.488281 21.015625 -22.9375 C 20.253906 -23.34375 19.753906 -23.738281 19.515625 -24.125 C 18.898438 -25.132812 18.273438 -26.617188 17.640625 -28.578125 L 16.921875 -30.859375 C 16.609375 -31.710938 16.285156 -32.445312 15.953125 -33.0625 C 15.023438 -34.8125 13.59375 -35.546875 11.65625 -35.265625 C 11.0625 -35.191406 10.476562 -34.585938 9.90625 -33.453125 C 9.351562 -32.335938 9.175781 -31.445312 9.375 -30.78125 C 11.050781 -25.644531 11.9375 -20.394531 12.03125 -15.03125 L 12.109375 -12.578125 L 12.1875 -10.15625 C 12.207031 -8.257812 12.132812 -6.632812 11.96875 -5.28125 C 11.800781 -3.988281 11.503906 -3.046875 11.078125 -2.453125 C 10.796875 -2.078125 10.582031 -1.578125 10.4375 -0.953125 L 10.25 -0.171875 L 10.046875 0.640625 C 9.765625 1.515625 9.300781 1.800781 8.65625 1.5 C 8.320312 1.332031 7.90625 1.203125 7.40625 1.109375 L 6.0625 0.859375 C 4.988281 0.640625 4.15625 0.269531 3.5625 -0.25 C 2.945312 -0.789062 2.578125 -1.660156 2.453125 -2.859375 C 2.078125 -6.179688 1.734375 -10.296875 1.421875 -15.203125 L 1.0625 -21.34375 L 0.671875 -27.53125 Z M 0.53125 -30.34375 "/></g></g></g><g fill="#000000" fill-opacity="1"><g transform="translate(131.912335, 205.499987)"><g><path d="M 12.03125 -24.265625 C 12.226562 -24.835938 12.4375 -25.550781 12.65625 -26.40625 L 13.171875 -28.609375 C 13.597656 -30.390625 14.179688 -31.773438 14.921875 -32.765625 L 15.03125 -32.921875 L 15.078125 -33.09375 C 15.242188 -34.738281 15.914062 -35.640625 17.09375 -35.796875 C 17.789062 -35.867188 18.585938 -35.570312 19.484375 -34.90625 C 20.359375 -34.238281 20.90625 -33.539062 21.125 -32.8125 L 21.3125 -32.125 L 21.515625 -31.359375 C 21.628906 -30.785156 21.675781 -30.234375 21.65625 -29.703125 C 21.019531 -27.640625 19.628906 -26.03125 17.484375 -24.875 C 16.847656 -24.53125 16.085938 -24.265625 15.203125 -24.078125 L 13.96875 -23.828125 L 12.75 -23.625 C 12.4375 -23.570312 12.222656 -23.582031 12.109375 -23.65625 C 11.921875 -23.726562 11.894531 -23.929688 12.03125 -24.265625 Z M 31.625 -17.59375 C 31.28125 -17.851562 30.972656 -17.867188 30.703125 -17.640625 L 30.359375 -17.3125 L 30.0625 -16.953125 L 28.6875 -15.390625 L 27.328125 -13.828125 C 26.253906 -12.660156 25.21875 -11.78125 24.21875 -11.1875 L 23.078125 -10.5 L 21.90625 -9.859375 C 20.957031 -9.429688 20.101562 -9.328125 19.34375 -9.546875 C 17.320312 -10.140625 15.539062 -11.457031 14 -13.5 C 12.476562 -15.519531 11.660156 -17.609375 11.546875 -19.765625 C 11.472656 -21.191406 12.015625 -21.921875 13.171875 -21.953125 C 17.285156 -22.109375 20.863281 -23.539062 23.90625 -26.25 C 25.070312 -27.28125 25.816406 -28.566406 26.140625 -30.109375 C 26.453125 -31.617188 26.242188 -32.863281 25.515625 -33.84375 C 23.160156 -36.957031 20.34375 -38.609375 17.0625 -38.796875 L 16.640625 -38.859375 L 16.34375 -38.90625 L 15.8125 -39 L 14.4375 -39.078125 L 13.078125 -39.109375 C 12.054688 -39.046875 11.222656 -38.710938 10.578125 -38.109375 C 9.296875 -36.878906 7.976562 -35.253906 6.625 -33.234375 C 2.207031 -26.660156 0.351562 -20.820312 1.0625 -15.71875 C 1.914062 -9.445312 4.210938 -4.957031 7.953125 -2.25 C 10.222656 -0.625 12.703125 0.113281 15.390625 -0.03125 C 18.046875 -0.15625 20.207031 -1.097656 21.875 -2.859375 C 25.8125 -7.054688 28.957031 -11.46875 31.3125 -16.09375 L 31.59375 -16.390625 L 31.890625 -16.75 C 32.078125 -17.03125 31.988281 -17.3125 31.625 -17.59375 Z M 31.625 -17.59375 "/></g></g></g><g fill="#000000" fill-opacity="1"><g transform="translate(169.644807, 205.499987)"><g><path d="M 8.484375 -28.390625 C 8.453125 -27.066406 8.570312 -26.175781 8.84375 -25.71875 C 9.125 -25.269531 9.820312 -24.84375 10.9375 -24.4375 L 13.078125 -23.625 C 13.898438 -23.332031 14.597656 -23.046875 15.171875 -22.765625 C 16.710938 -22.023438 17.9375 -21.144531 18.84375 -20.125 C 20.457031 -18.320312 21.515625 -16.390625 22.015625 -14.328125 C 22.585938 -11.941406 22.28125 -9.742188 21.09375 -7.734375 L 20.125 -6.09375 C 19.75 -5.46875 19.394531 -4.941406 19.0625 -4.515625 C 18.175781 -3.335938 17.164062 -2.507812 16.03125 -2.03125 C 15.320312 -1.71875 14.765625 -1.578125 14.359375 -1.609375 C 9.367188 -2.078125 5.890625 -3.640625 3.921875 -6.296875 L 2.859375 -7.625 L 1.8125 -8.96875 C 1.03125 -10.019531 0.507812 -11.03125 0.25 -12 L 0.140625 -12.28125 L 0.0625 -12.609375 C 0.0195312 -12.847656 0.0820312 -13.003906 0.25 -13.078125 C 0.394531 -13.148438 0.546875 -13.085938 0.703125 -12.890625 L 0.96875 -12.359375 C 1.394531 -11.554688 2.09375 -10.851562 3.0625 -10.25 L 4.375 -9.484375 L 5.671875 -8.765625 C 6.265625 -8.378906 6.820312 -8.390625 7.34375 -8.796875 L 8.6875 -9.828125 C 9.1875 -10.234375 9.601562 -10.613281 9.9375 -10.96875 C 10.8125 -11.875 11.382812 -12.859375 11.65625 -13.921875 C 12.082031 -15.535156 11.546875 -16.773438 10.046875 -17.640625 L 9.078125 -18.203125 L 8.09375 -18.734375 C 7.351562 -19.160156 6.753906 -19.554688 6.296875 -19.921875 C 2.617188 -22.953125 0.742188 -26.082031 0.671875 -29.3125 C 0.648438 -30.601562 1.066406 -31.875 1.921875 -33.125 C 2.828125 -34.457031 3.910156 -35.226562 5.171875 -35.4375 L 6.203125 -35.6875 L 7.265625 -36.015625 C 8.117188 -36.273438 8.84375 -36.378906 9.4375 -36.328125 C 11.675781 -36.117188 13.445312 -35.300781 14.75 -33.875 C 16.082031 -32.40625 16.722656 -30.503906 16.671875 -28.171875 C 16.671875 -27.921875 16.644531 -27.734375 16.59375 -27.609375 C 16.519531 -27.421875 16.378906 -27.3125 16.171875 -27.28125 C 15.984375 -27.238281 15.828125 -27.289062 15.703125 -27.4375 L 15.53125 -27.640625 L 15.421875 -27.859375 L 14.46875 -29.75 C 14.101562 -30.53125 13.78125 -31.144531 13.5 -31.59375 C 12.738281 -32.882812 12.050781 -33.53125 11.4375 -33.53125 C 10.820312 -33.519531 10.15625 -32.863281 9.4375 -31.5625 L 9.015625 -30.78125 L 8.65625 -30 C 8.414062 -29.40625 8.359375 -28.867188 8.484375 -28.390625 Z M 8.484375 -28.390625 "/></g></g></g><g fill="#000000" fill-opacity="1"><g transform="translate(198.806777, 205.499987)"><g><path d="M 8.484375 -28.390625 C 8.453125 -27.066406 8.570312 -26.175781 8.84375 -25.71875 C 9.125 -25.269531 9.820312 -24.84375 10.9375 -24.4375 L 13.078125 -23.625 C 13.898438 -23.332031 14.597656 -23.046875 15.171875 -22.765625 C 16.710938 -22.023438 17.9375 -21.144531 18.84375 -20.125 C 20.457031 -18.320312 21.515625 -16.390625 22.015625 -14.328125 C 22.585938 -11.941406 22.28125 -9.742188 21.09375 -7.734375 L 20.125 -6.09375 C 19.75 -5.46875 19.394531 -4.941406 19.0625 -4.515625 C 18.175781 -3.335938 17.164062 -2.507812 16.03125 -2.03125 C 15.320312 -1.71875 14.765625 -1.578125 14.359375 -1.609375 C 9.367188 -2.078125 5.890625 -3.640625 3.921875 -6.296875 L 2.859375 -7.625 L 1.8125 -8.96875 C 1.03125 -10.019531 0.507812 -11.03125 0.25 -12 L 0.140625 -12.28125 L 0.0625 -12.609375 C 0.0195312 -12.847656 0.0820312 -13.003906 0.25 -13.078125 C 0.394531 -13.148438 0.546875 -13.085938 0.703125 -12.890625 L 0.96875 -12.359375 C 1.394531 -11.554688 2.09375 -10.851562 3.0625 -10.25 L 4.375 -9.484375 L 5.671875 -8.765625 C 6.265625 -8.378906 6.820312 -8.390625 7.34375 -8.796875 L 8.6875 -9.828125 C 9.1875 -10.234375 9.601562 -10.613281 9.9375 -10.96875 C 10.8125 -11.875 11.382812 -12.859375 11.65625 -13.921875 C 12.082031 -15.535156 11.546875 -16.773438 10.046875 -17.640625 L 9.078125 -18.203125 L 8.09375 -18.734375 C 7.351562 -19.160156 6.753906 -19.554688 6.296875 -19.921875 C 2.617188 -22.953125 0.742188 -26.082031 0.671875 -29.3125 C 0.648438 -30.601562 1.066406 -31.875 1.921875 -33.125 C 2.828125 -34.457031 3.910156 -35.226562 5.171875 -35.4375 L 6.203125 -35.6875 L 7.265625 -36.015625 C 8.117188 -36.273438 8.84375 -36.378906 9.4375 -36.328125 C 11.675781 -36.117188 13.445312 -35.300781 14.75 -33.875 C 16.082031 -32.40625 16.722656 -30.503906 16.671875 -28.171875 C 16.671875 -27.921875 16.644531 -27.734375 16.59375 -27.609375 C 16.519531 -27.421875 16.378906 -27.3125 16.171875 -27.28125 C 15.984375 -27.238281 15.828125 -27.289062 15.703125 -27.4375 L 15.53125 -27.640625 L 15.421875 -27.859375 L 14.46875 -29.75 C 14.101562 -30.53125 13.78125 -31.144531 13.5 -31.59375 C 12.738281 -32.882812 12.050781 -33.53125 11.4375 -33.53125 C 10.820312 -33.519531 10.15625 -32.863281 9.4375 -31.5625 L 9.015625 -30.78125 L 8.65625 -30 C 8.414062 -29.40625 8.359375 -28.867188 8.484375 -28.390625 Z M 8.484375 -28.390625 "/></g></g></g><g fill="#000000" fill-opacity="1"><g transform="translate(227.968747, 205.499987)"><g/></g></g><g fill="#000000" fill-opacity="1"><g transform="translate(244.664531, 205.499987)"><g><path d="M 10.6875 -28.671875 L 11.46875 -29.390625 C 12.082031 -29.960938 12.601562 -30.410156 13.03125 -30.734375 L 13.21875 -30.890625 L 13.390625 -31.09375 C 13.703125 -31.445312 13.84375 -31.757812 13.8125 -32.03125 C 13.769531 -32.21875 13.84375 -32.414062 14.03125 -32.625 C 14.382812 -32.96875 14.585938 -33.363281 14.640625 -33.8125 C 14.640625 -33.957031 14.703125 -34.125 14.828125 -34.3125 C 15.203125 -34.925781 15.519531 -35.660156 15.78125 -36.515625 L 16.0625 -37.6875 L 16.3125 -38.859375 C 16.476562 -39.578125 16.441406 -40.234375 16.203125 -40.828125 L 15.75 -42 L 15.25 -43.109375 C 14.675781 -44.242188 13.859375 -44.976562 12.796875 -45.3125 C 12.410156 -45.4375 12.066406 -45.425781 11.765625 -45.28125 C 11.472656 -45.15625 11.148438 -44.96875 10.796875 -44.71875 L 9.90625 -44.0625 C 9.707031 -43.894531 9.644531 -43.695312 9.71875 -43.46875 C 9.863281 -43.007812 9.953125 -42.453125 9.984375 -41.796875 L 10.015625 -40.96875 L 10.015625 -38.296875 L 9.984375 -36.484375 C 9.972656 -34.648438 9.898438 -32.773438 9.765625 -30.859375 C 9.691406 -29.859375 9.722656 -28.878906 9.859375 -27.921875 Z M 19.734375 -16.171875 L 19.671875 -16.953125 L 19.5625 -17.703125 L 19.453125 -18.484375 C 19.359375 -19.054688 19.203125 -19.535156 18.984375 -19.921875 C 18.648438 -20.578125 18.269531 -21.382812 17.84375 -22.34375 C 17.175781 -23.851562 16.25 -24.988281 15.0625 -25.75 C 14.1875 -26.300781 13.34375 -26.457031 12.53125 -26.21875 L 11.75 -25.890625 L 11 -25.5 C 10.320312 -25.164062 10.023438 -24.617188 10.109375 -23.859375 C 10.210938 -22.773438 10.285156 -21.671875 10.328125 -20.546875 C 10.359375 -19.316406 10.359375 -18.144531 10.328125 -17.03125 L 10.21875 -15.203125 L 10.109375 -13.328125 L 10.078125 -11.890625 L 9.96875 -10.46875 L 9.828125 -9.625 L 9.625 -8.796875 L 8.984375 -4.8125 C 8.835938 -3.832031 8.578125 -2.691406 8.203125 -1.390625 C 8.097656 -0.984375 8.269531 -0.816406 8.71875 -0.890625 C 8.894531 -0.929688 9.132812 -1.023438 9.4375 -1.171875 L 9.796875 -1.34375 L 10.15625 -1.46875 C 10.957031 -1.71875 11.75 -2.25 12.53125 -3.0625 L 14.1875 -4.625 L 15.859375 -6.171875 L 16.5 -6.765625 C 16.726562 -7.003906 16.894531 -7.226562 17 -7.4375 C 17.257812 -7.945312 17.722656 -8.660156 18.390625 -9.578125 C 18.617188 -9.867188 18.804688 -10.175781 18.953125 -10.5 C 19.691406 -12.125 19.953125 -13.800781 19.734375 -15.53125 Z M 0.1875 -10.578125 L 0.1875 -13.4375 L 0.25 -15.671875 L 0.25 -18.671875 L 0.390625 -22.71875 L 0.5625 -25.40625 L 0.75 -28.140625 L 1 -32.28125 L 1.03125 -33.03125 L 1.03125 -40.390625 C 1.03125 -41.441406 1.085938 -42.394531 1.203125 -43.25 C 1.304688 -44.175781 1.796875 -44.707031 2.671875 -44.84375 L 4.625 -45.109375 C 5.363281 -45.191406 6.019531 -45.222656 6.59375 -45.203125 L 6.875 -45.203125 L 7.125 -45.171875 C 7.625 -44.960938 8.132812 -45.101562 8.65625 -45.59375 C 9.53125 -46.382812 10.820312 -46.941406 12.53125 -47.265625 C 13.0625 -47.367188 13.679688 -47.289062 14.390625 -47.03125 C 15.171875 -46.738281 15.820312 -46.378906 16.34375 -45.953125 C 16.9375 -45.472656 17.367188 -44.878906 17.640625 -44.171875 L 17.984375 -43.21875 L 18.3125 -42.25 C 18.59375 -41.507812 18.863281 -40.894531 19.125 -40.40625 C 19.4375 -39.851562 19.535156 -39.222656 19.421875 -38.515625 L 19.3125 -37.578125 C 19.207031 -35.722656 18.707031 -34.238281 17.8125 -33.125 L 17.59375 -32.765625 C 17.550781 -32.679688 17.539062 -32.601562 17.5625 -32.53125 C 17.601562 -32.425781 17.6875 -32.390625 17.8125 -32.421875 C 18.351562 -32.609375 19.019531 -32.597656 19.8125 -32.390625 C 20.664062 -32.210938 21.390625 -32.019531 21.984375 -31.8125 C 22.484375 -31.644531 22.984375 -31.265625 23.484375 -30.671875 C 23.785156 -30.316406 24.082031 -29.914062 24.375 -29.46875 C 25.03125 -28.53125 25.597656 -27.851562 26.078125 -27.4375 C 26.222656 -27.3125 26.375 -27.117188 26.53125 -26.859375 C 27.175781 -25.765625 27.6875 -24.59375 28.0625 -23.34375 L 28.578125 -21.703125 C 28.765625 -21.078125 28.878906 -20.523438 28.921875 -20.046875 L 29.03125 -19.65625 C 29.269531 -19.0625 29.492188 -18.328125 29.703125 -17.453125 L 29.96875 -16.34375 L 30.21875 -15.21875 C 30.351562 -14.6875 30.382812 -14.160156 30.3125 -13.640625 C 30.082031 -12.304688 29.800781 -11.238281 29.46875 -10.4375 C 29.34375 -10.101562 29.257812 -9.796875 29.21875 -9.515625 C 29.164062 -8.984375 29.046875 -8.398438 28.859375 -7.765625 L 28.28125 -6.046875 L 28.1875 -5.90625 C 28.15625 -5.863281 28.113281 -5.84375 28.0625 -5.84375 L 27.9375 -5.921875 L 27.828125 -6.0625 L 27.78125 -6.203125 L 27.71875 -6.34375 C 27.601562 -6.507812 27.492188 -6.519531 27.390625 -6.375 L 27 -5.90625 L 26.6875 -5.421875 C 26.5 -5.085938 26.234375 -4.707031 25.890625 -4.28125 L 25.4375 -3.75 L 25.015625 -3.234375 C 24.722656 -2.878906 24.425781 -2.710938 24.125 -2.734375 C 23.601562 -2.785156 23.039062 -2.53125 22.4375 -1.96875 C 21.519531 -1.15625 20.40625 -0.460938 19.09375 0.109375 C 16.769531 1.148438 14.679688 1.660156 12.828125 1.640625 L 11.296875 1.609375 C 10.703125 1.597656 10.179688 1.546875 9.734375 1.453125 C 9.398438 1.390625 9.019531 1.359375 8.59375 1.359375 L 7.40625 1.421875 C 7.125 1.441406 6.804688 1.582031 6.453125 1.84375 C 5.765625 2.320312 4.988281 2.644531 4.125 2.8125 C 3.65625 2.90625 3.375 2.71875 3.28125 2.25 C 3.207031 1.769531 3.03125 1.445312 2.75 1.28125 L 2.671875 1.203125 L 2.640625 1.078125 C 2.660156 0.597656 2.394531 0.3125 1.84375 0.21875 C 1.726562 0.195312 1.601562 0.125 1.46875 0 L 1.203125 -0.328125 C 0.878906 -0.773438 0.65625 -1.25 0.53125 -1.75 C 0.226562 -2.882812 0.0507812 -4.082031 0 -5.34375 Z M 0.1875 -10.578125 "/></g></g></g><g fill="#000000" fill-opacity="1"><g transform="translate(281.200479, 205.499987)"><g><path d="M 18.453125 -19.8125 C 18.378906 -22.0625 17.414062 -23.78125 15.5625 -24.96875 C 14.644531 -25.539062 13.601562 -25.601562 12.4375 -25.15625 C 11.269531 -24.71875 10.625 -23.96875 10.5 -22.90625 C 10.414062 -22.351562 10.300781 -21.710938 10.15625 -20.984375 L 9.71875 -19.09375 C 9.34375 -17.5 9.128906 -16.226562 9.078125 -15.28125 C 8.984375 -13.445312 9.34375 -11.75 10.15625 -10.1875 C 11.007812 -8.59375 12.195312 -7.429688 13.71875 -6.703125 C 14.832031 -6.148438 15.664062 -6.375 16.21875 -7.375 C 18 -10.625 18.78125 -14 18.5625 -17.5 Z M 0 -15.25 C -0.0390625 -20.207031 1.273438 -24.28125 3.953125 -27.46875 C 5.210938 -28.957031 6.757812 -29.96875 8.59375 -30.5 C 10.539062 -31.0625 12.453125 -30.96875 14.328125 -30.21875 C 17.390625 -29 19.550781 -26.457031 20.8125 -22.59375 C 21.144531 -21.59375 21.332031 -20.398438 21.375 -19.015625 L 21.40625 -17.171875 L 21.34375 -15.3125 C 21.25 -9.519531 20.164062 -5.222656 18.09375 -2.421875 C 16.4375 -0.171875 14.382812 0.515625 11.9375 -0.359375 L 10.109375 -0.953125 L 8.265625 -1.53125 C 6.835938 -2.007812 5.695312 -2.640625 4.84375 -3.421875 C 1.6875 -6.296875 0.0703125 -10.238281 0 -15.25 Z M 0 -15.25 "/></g></g></g><g fill="#000000" fill-opacity="1"><g transform="translate(308.164176, 205.499987)"><g><path d="M 18.453125 -19.8125 C 18.378906 -22.0625 17.414062 -23.78125 15.5625 -24.96875 C 14.644531 -25.539062 13.601562 -25.601562 12.4375 -25.15625 C 11.269531 -24.71875 10.625 -23.96875 10.5 -22.90625 C 10.414062 -22.351562 10.300781 -21.710938 10.15625 -20.984375 L 9.71875 -19.09375 C 9.34375 -17.5 9.128906 -16.226562 9.078125 -15.28125 C 8.984375 -13.445312 9.34375 -11.75 10.15625 -10.1875 C 11.007812 -8.59375 12.195312 -7.429688 13.71875 -6.703125 C 14.832031 -6.148438 15.664062 -6.375 16.21875 -7.375 C 18 -10.625 18.78125 -14 18.5625 -17.5 Z M 0 -15.25 C -0.0390625 -20.207031 1.273438 -24.28125 3.953125 -27.46875 C 5.210938 -28.957031 6.757812 -29.96875 8.59375 -30.5 C 10.539062 -31.0625 12.453125 -30.96875 14.328125 -30.21875 C 17.390625 -29 19.550781 -26.457031 20.8125 -22.59375 C 21.144531 -21.59375 21.332031 -20.398438 21.375 -19.015625 L 21.40625 -17.171875 L 21.34375 -15.3125 C 21.25 -9.519531 20.164062 -5.222656 18.09375 -2.421875 C 16.4375 -0.171875 14.382812 0.515625 11.9375 -0.359375 L 10.109375 -0.953125 L 8.265625 -1.53125 C 6.835938 -2.007812 5.695312 -2.640625 4.84375 -3.421875 C 1.6875 -6.296875 0.0703125 -10.238281 0 -15.25 Z M 0 -15.25 "/></g></g></g><g fill="#000000" fill-opacity="1"><g transform="translate(335.127874, 205.499987)"><g><path d="M 21.296875 -3.25 C 20.515625 -4.695312 19.648438 -6.390625 18.703125 -8.328125 L 16.203125 -13.421875 L 15.421875 -15.0625 L 14.671875 -16.703125 C 14.054688 -17.960938 13.453125 -19.007812 12.859375 -19.84375 C 12.503906 -20.3125 12.523438 -20.832031 12.921875 -21.40625 C 13.710938 -22.570312 14.867188 -23.914062 16.390625 -25.4375 L 18.28125 -27.296875 C 19.007812 -28.023438 19.625 -28.660156 20.125 -29.203125 C 20.582031 -29.710938 20.703125 -30.191406 20.484375 -30.640625 C 20.003906 -30.492188 19.484375 -30.207031 18.921875 -29.78125 L 18.234375 -29.21875 L 17.5625 -28.671875 C 14.8125 -26.566406 12.375 -24.347656 10.25 -22.015625 L 10.015625 -21.765625 L 9.765625 -21.546875 C 9.566406 -21.359375 9.421875 -21.28125 9.328125 -21.3125 C 9.160156 -21.375 9.078125 -21.535156 9.078125 -21.796875 L 9.078125 -22.4375 L 8.984375 -24.578125 L 8.875 -26.75 C 8.601562 -30.882812 8.1875 -34.078125 7.625 -36.328125 L 7.546875 -36.734375 L 7.40625 -37.125 C 7.257812 -37.40625 7.0625 -37.582031 6.8125 -37.65625 L 5.625 -38.046875 L 4.421875 -38.46875 C 3.472656 -38.78125 2.648438 -38.898438 1.953125 -38.828125 L 1.34375 -38.765625 C 1.113281 -38.734375 0.925781 -38.6875 0.78125 -38.625 C 0.351562 -38.445312 0.117188 -38.039062 0.078125 -37.40625 C 0.0234375 -36.769531 0.0546875 -36 0.171875 -35.09375 L 0.390625 -32.8125 C 0.628906 -29.414062 0.734375 -25.59375 0.703125 -21.34375 L 0.578125 -15.59375 L 0.421875 -9.859375 L 0.21875 -4.3125 L 0.0625 1.25 C 0.0625 2.050781 0.160156 2.628906 0.359375 2.984375 C 0.660156 3.515625 1.226562 3.753906 2.0625 3.703125 C 2.1875 3.679688 2.34375 3.71875 2.53125 3.8125 L 3 4.0625 C 5.65625 5.289062 7.289062 4.566406 7.90625 1.890625 C 8.625 -1.316406 9.015625 -4.226562 9.078125 -6.84375 L 9.1875 -9.609375 L 9.328125 -12.359375 C 9.429688 -14.585938 9.441406 -16.429688 9.359375 -17.890625 L 9.359375 -18.34375 C 9.367188 -18.507812 9.453125 -18.601562 9.609375 -18.625 C 9.734375 -18.632812 9.832031 -18.566406 9.90625 -18.421875 L 9.96875 -18.203125 L 10.046875 -18 L 11.4375 -14.5 L 12.859375 -11.015625 C 14.003906 -8.367188 15.164062 -6.144531 16.34375 -4.34375 L 17.0625 -3.09375 L 17.75 -1.8125 C 18.332031 -0.84375 18.984375 -0.132812 19.703125 0.3125 L 20.171875 0.5625 L 20.65625 0.75 C 21.039062 0.863281 21.316406 0.789062 21.484375 0.53125 C 22.128906 -0.507812 22.066406 -1.769531 21.296875 -3.25 Z M 21.296875 -3.25 "/></g></g></g></svg>